<?xml version="1.0" standalone="no"?>
<!DOCTYPE svg PUBLIC "-//W3C//DTD SVG 20010904//EN"
 "http://www.w3.org/TR/2001/REC-SVG-20010904/DTD/svg10.dtd">
<svg version="1.0" xmlns="http://www.w3.org/2000/svg"
 width="1080.000000pt" height="1080.000000pt" viewBox="0 0 1080.000000 1080.000000"
 preserveAspectRatio="xMidYMid meet">

<g transform="translate(0.000000,1080.000000) scale(0.100000,-0.100000)"
fill="#000000" stroke="none">
<path d="M2645 7635 c-164 -23 -260 -56 -394 -134 -81 -48 -225 -154 -243
-180 -7 -10 -48 -56 -90 -102 -254 -277 -453 -603 -579 -944 -50 -136 -97
-306 -113 -411 -31 -200 -12 -478 44 -644 89 -265 286 -460 537 -532 70 -21
99 -23 273 -22 159 1 213 5 290 22 102 22 246 67 321 101 93 42 382 278 674
552 33 30 80 74 105 96 l45 41 0 -192 c0 -181 1 -193 24 -236 50 -95 113 -138
219 -147 107 -9 214 35 266 110 17 23 67 92 111 152 82 111 203 282 395 560
132 192 151 217 156 212 3 -2 -2 -24 -10 -48 -27 -83 -75 -294 -87 -384 -26
-198 6 -377 81 -456 37 -39 114 -69 175 -69 75 0 245 75 335 149 87 71 284
290 345 383 9 15 21 26 25 23 4 -3 11 -34 15 -70 19 -179 157 -305 333 -305
l68 0 84 98 c148 171 434 482 443 482 5 0 7 -6 4 -14 -6 -16 -76 -302 -101
-416 -51 -229 -121 -470 -137 -470 -6 0 -42 8 -82 17 -53 13 -116 18 -242 18
-153 0 -182 -3 -290 -29 -190 -45 -328 -119 -436 -233 -82 -86 -127 -196 -115
-282 8 -63 59 -163 102 -200 76 -68 205 -111 327 -111 60 0 219 25 319 51 98
25 221 76 284 119 82 57 202 169 288 267 44 51 84 93 89 93 5 0 23 -6 40 -14
98 -45 428 -132 650 -171 227 -41 334 -50 582 -50 302 0 409 17 699 110 257
82 434 243 514 467 22 62 26 91 26 188 1 102 -2 124 -27 190 -52 143 -97 165
-123 61 -38 -146 -177 -274 -443 -406 -434 -216 -925 -296 -1416 -230 -176 24
-367 54 -373 59 -2 3 9 38 25 78 17 40 52 136 78 213 26 77 53 145 59 151 6 6
36 16 67 23 31 6 78 26 105 43 65 41 270 248 370 373 44 55 84 100 89 100 5 0
13 -15 17 -32 11 -43 69 -140 106 -179 55 -58 129 -101 237 -136 65 -21 255
-16 348 10 156 44 304 138 458 291 198 198 371 532 463 894 8 33 16 60 18 62
2 1 28 15 58 30 139 70 335 211 433 312 90 93 35 208 -68 144 -17 -10 -74 -52
-126 -93 -95 -74 -208 -148 -226 -148 -5 0 -7 48 -5 116 7 169 -17 257 -88
332 -42 44 -92 67 -172 81 -71 12 -114 3 -198 -39 -56 -29 -128 -113 -167
-198 -20 -42 -38 -79 -39 -81 -2 -2 -32 13 -67 33 -158 88 -315 129 -413 107
-76 -17 -107 -48 -217 -214 -189 -285 -226 -366 -317 -687 -29 -102 -51 -215
-57 -294 -6 -87 -7 -90 -56 -155 -138 -182 -287 -346 -371 -408 -70 -52 -86
-54 -86 -13 0 36 9 66 229 745 210 651 209 649 172 730 -42 91 -142 182 -278
253 -83 43 -123 52 -140 30 -5 -7 -15 -40 -22 -73 -7 -33 -23 -105 -36 -160
-145 -620 -184 -769 -217 -823 -12 -20 -81 -98 -153 -172 -135 -140 -331 -350
-449 -480 -38 -41 -74 -76 -81 -78 -19 -4 -28 51 -20 114 12 102 105 357 210
579 57 120 150 337 213 495 77 193 64 260 -75 391 -77 72 -184 140 -287 183
-93 39 -99 34 -107 -80 -16 -242 -73 -539 -159 -839 -43 -149 -78 -287 -91
-365 -14 -76 -54 -139 -204 -320 -175 -210 -353 -380 -397 -380 -19 0 -20 4
-14 54 18 153 220 800 380 1214 59 154 46 230 -56 338 -63 67 -109 100 -215
154 -121 62 -135 56 -147 -60 -8 -80 -60 -279 -87 -332 -32 -63 -282 -452
-474 -738 -257 -383 -360 -509 -404 -495 -46 14 -43 34 66 375 72 225 100 304
206 580 101 266 98 309 -32 441 -41 40 -103 87 -161 122 -157 92 -183 89 -193
-21 -4 -38 -19 -114 -33 -168 -15 -55 -32 -124 -39 -154 -7 -30 -24 -93 -39
-140 -14 -47 -39 -141 -56 -210 -16 -69 -34 -139 -40 -156 -5 -17 -10 -38 -10
-48 0 -32 -355 -401 -540 -560 -137 -117 -282 -224 -398 -293 -341 -201 -542
-223 -691 -73 -98 98 -132 201 -132 400 -1 260 40 435 169 730 230 527 553
945 841 1088 70 34 81 37 165 37 117 0 148 -13 177 -73 26 -54 31 -154 10
-214 -16 -47 -1 -82 48 -115 65 -44 156 -20 199 53 21 36 23 48 19 159 -5 176
-39 243 -170 333 -150 104 -298 163 -467 187 -111 17 -116 17 -235 0z m6117
-460 c12 -42 2 -116 -29 -213 -30 -92 -46 -101 -75 -42 -31 64 -14 195 34 263
26 37 59 33 70 -8z m-302 -210 c0 -3 7 -40 16 -82 18 -91 50 -143 109 -185 25
-18 45 -38 45 -44 0 -7 -18 -69 -40 -138 -124 -393 -270 -683 -424 -845 -82
-86 -126 -112 -198 -118 -73 -7 -92 7 -115 86 -21 73 -13 281 16 397 63 255
202 545 328 684 147 163 263 271 263 245z m-2342 -2330 c12 -4 22 -12 22 -19
0 -6 -33 -47 -74 -92 -198 -214 -487 -327 -650 -253 -62 28 -74 118 -27 190
45 67 185 144 306 167 33 6 69 14 80 16 29 7 316 -1 343 -9z"/>
<path d="M1405 3661 c-118 -30 -195 -128 -195 -245 1 -101 49 -182 136 -226
89 -45 242 -28 293 34 14 17 7 36 -14 36 -7 0 -36 -11 -63 -25 -207 -104 -401
156 -238 319 73 74 186 83 269 24 29 -21 30 -21 43 -3 20 27 19 29 -35 58 -53
29 -143 42 -196 28z"/>
<path d="M1774 3657 c-2 -7 -3 -120 -2 -252 l3 -240 164 -3 c164 -3 191 2 191
34 0 11 -32 14 -147 16 l-148 3 0 90 0 90 123 3 122 3 0 24 0 25 -125 0 -126
0 3 83 3 82 138 3 137 3 0 24 0 25 -165 0 c-125 0 -167 -3 -171 -13z"/>
<path d="M2257 3663 c-11 -11 -8 -491 3 -498 6 -3 19 -4 30 0 16 5 20 17 22
83 l3 77 60 2 c92 2 99 -1 146 -73 52 -81 65 -94 90 -94 30 0 23 20 -32 98
-48 68 -54 92 -24 92 24 0 73 67 80 109 17 104 -30 180 -125 200 -55 12 -243
15 -253 4z m252 -56 c48 -17 73 -54 73 -110 0 -93 -37 -117 -177 -117 l-95 0
0 113 c0 63 3 117 7 120 11 11 156 7 192 -6z"/>
<path d="M2715 3660 c-3 -5 -1 -19 5 -30 6 -11 49 -116 96 -233 47 -116 91
-218 96 -224 6 -7 21 -13 33 -13 20 0 34 28 124 244 55 134 101 249 101 256 0
6 -11 10 -26 8 -29 -3 -27 1 -132 -268 -31 -80 -61 -148 -66 -152 -7 -4 -42
71 -91 195 -44 111 -84 208 -88 215 -10 14 -43 16 -52 2z"/>
<path d="M3275 3658 c-3 -8 -4 -121 -3 -253 l3 -240 170 0 c169 0 170 0 173
23 3 22 2 22 -126 22 -72 0 -137 3 -146 6 -23 9 -23 169 0 178 9 3 65 6 126 6
108 0 109 0 106 23 -3 21 -8 22 -127 27 l-123 5 0 72 c0 39 3 76 7 82 4 7 56
11 141 11 135 0 135 0 132 23 -3 22 -6 22 -166 25 -126 2 -164 0 -167 -10z"/>
<path d="M3714 3655 c-12 -31 7 -35 162 -35 101 0 154 -4 154 -11 0 -5 -26
-41 -57 -78 -88 -104 -226 -272 -252 -308 -45 -61 -36 -64 191 -61 202 3 203
3 206 26 2 13 -2 22 -10 22 -7 0 -79 1 -160 1 -82 1 -150 5 -154 10 -3 5 66
96 154 202 180 219 174 210 166 231 -5 14 -32 16 -200 16 -161 0 -196 -3 -200
-15z"/>
<path d="M4375 3661 c-57 -15 -94 -41 -119 -84 -24 -41 -25 -50 -26 -217 0
-96 -1 -181 0 -188 0 -8 9 -12 23 -10 20 3 22 10 27 73 l5 70 155 0 155 0 3
-73 c3 -69 4 -73 25 -70 22 3 22 7 25 168 2 98 -1 180 -8 202 -13 45 -52 93
-91 113 -34 18 -132 27 -174 16z m114 -51 c74 -21 115 -95 109 -195 l-3 -50
-157 -3 -158 -3 0 70 c0 70 17 128 44 150 20 17 84 40 111 41 11 0 36 -4 54
-10z"/>
<path d="M5185 3666 c-5 -2 -22 -7 -37 -10 -41 -9 -95 -61 -113 -109 -13 -34
-15 -75 -13 -212 3 -167 3 -170 25 -173 21 -3 22 1 25 70 l3 73 155 0 155 0 3
-73 c3 -69 4 -73 25 -70 22 3 22 6 25 178 2 117 -1 185 -9 205 -15 37 -55 82
-91 101 -27 14 -133 28 -153 20z m136 -73 c45 -27 71 -89 67 -165 l-3 -63
-155 0 -155 0 -3 50 c-2 27 -1 65 3 83 8 42 58 99 99 112 41 12 110 4 147 -17z"/>
<path d="M5605 3658 c-3 -7 -4 -121 -3 -253 l3 -240 23 -3 c21 -3 22 0 22 72
0 92 9 99 108 92 37 -2 68 -5 68 -5 1 -1 21 -31 45 -68 48 -76 65 -93 91 -93
28 0 22 16 -34 97 -50 72 -52 77 -33 87 90 50 118 157 66 249 -30 53 -81 70
-223 75 -103 4 -129 2 -133 -10z m240 -49 c59 -15 77 -38 83 -104 4 -52 3 -56
-31 -90 l-36 -36 -103 3 -103 3 -3 104 c-1 58 0 111 2 118 7 16 128 18 191 2z"/>
<path d="M6067 3664 c-4 -4 -7 -15 -7 -25 0 -16 11 -19 83 -21 l82 -3 5 -225
c5 -217 6 -225 25 -225 19 0 20 8 25 225 l5 225 80 5 c72 4 80 7 80 25 0 19
-8 20 -186 23 -102 1 -188 -1 -192 -4z"/>
<path d="M6555 3658 c-3 -8 -4 -121 -3 -253 l3 -240 170 0 c169 0 170 0 173
23 3 22 3 22 -131 22 -75 0 -142 3 -151 6 -13 5 -16 22 -16 78 0 70 9 100 30
102 5 1 60 2 121 3 108 1 110 1 107 24 -3 21 -8 22 -128 27 l-124 5 -4 60 c-6
110 -13 105 149 105 140 0 140 0 137 23 -3 22 -6 22 -166 25 -126 2 -164 0
-167 -10z"/>
<path d="M7083 3651 c-67 -31 -92 -105 -58 -171 17 -33 59 -57 156 -89 81 -26
112 -56 107 -101 -8 -80 -127 -101 -232 -42 -55 31 -56 32 -66 11 -15 -26 -5
-38 57 -69 62 -31 180 -35 231 -7 66 36 91 121 54 182 -21 33 -52 51 -158 90
-86 31 -107 51 -102 97 2 26 10 37 38 51 41 21 122 17 172 -9 27 -14 31 -14
43 2 19 27 9 40 -47 58 -67 21 -143 20 -195 -3z"/>
<path d="M7618 3661 c-46 -10 -103 -52 -126 -94 -25 -47 -32 -394 -8 -403 30
-11 43 12 38 69 -6 76 -2 78 169 75 l144 -3 5 -70 c5 -67 6 -70 30 -70 l25 0
0 175 c0 167 -1 177 -25 225 -18 36 -37 56 -66 72 -45 25 -130 36 -186 24z
m156 -69 c46 -26 66 -74 66 -160 l0 -73 -157 3 -158 3 -2 40 c-5 110 31 183
101 205 41 12 112 4 150 -18z"/>
<path d="M8055 3658 c-3 -7 -4 -121 -3 -253 l3 -240 25 0 25 0 5 172 c4 154 7
175 26 200 37 50 81 73 142 73 50 0 58 -3 93 -39 l39 -39 0 -180 c0 -172 1
-181 20 -187 11 -3 24 -3 30 0 14 9 13 329 -1 380 -16 57 -76 112 -133 120
-57 9 -144 -16 -176 -50 -32 -34 -38 -32 -42 13 -2 30 -7 38 -26 40 -12 2 -24
-3 -27 -10z"/>
<path d="M8763 3660 c-54 -13 -97 -44 -123 -91 -24 -42 -25 -51 -25 -224 l0
-180 25 0 c24 0 25 3 30 70 l5 70 149 3 c113 2 152 -1 158 -10 5 -7 8 -35 7
-63 -1 -76 -1 -77 24 -73 22 3 22 6 25 163 3 187 -6 231 -57 285 -49 51 -134
70 -218 50z m157 -69 c14 -10 33 -32 43 -49 20 -34 33 -118 23 -156 l-6 -26
-155 0 -155 0 0 70 c0 75 15 124 46 152 46 40 156 45 204 9z"/>
<path d="M9200 3660 c-4 -142 1 -485 8 -492 5 -5 65 -7 133 -6 120 3 124 4
127 26 3 21 1 22 -91 22 -53 0 -102 3 -111 6 -14 5 -16 35 -16 230 l0 224 -25
0 c-14 0 -25 -4 -25 -10z"/>
</g>
</svg>
